<?xml version="1.0" standalone="no"?>
<!DOCTYPE svg PUBLIC "-//W3C//DTD SVG 20010904//EN"
 "http://www.w3.org/TR/2001/REC-SVG-20010904/DTD/svg10.dtd">
<svg version="1.0" xmlns="http://www.w3.org/2000/svg"
 width="500.000000pt" height="500.000000pt" viewBox="0 0 500.000000 500.000000"
 preserveAspectRatio="xMidYMid meet">

<g transform="translate(0.000000,500.000000) scale(0.100000,-0.100000)"
fill="#000000" stroke="none">
<path d="M2260 3141 c0 -14 8 -21 27 -23 26 -3 31 -12 90 -188 35 -102 70
-204 79 -227 l16 -43 149 0 c82 0 149 3 149 8 0 4 -33 108 -74 230 l-74 222
64 0 c57 0 64 2 64 20 0 19 -7 20 -245 20 -236 0 -245 -1 -245 -19z"/>
<path d="M2877 3140 c4 -15 15 -20 56 -22 l51 -3 45 -143 45 -143 -23 -72
c-13 -40 -26 -78 -29 -85 -3 -10 4 -13 28 -10 28 2 35 9 45 38 l12 35 12 -37
13 -38 154 0 c85 0 154 1 154 3 0 1 -34 104 -75 227 -41 123 -75 226 -75 227
0 2 32 3 70 3 63 0 70 2 70 20 0 20 -7 20 -279 20 -272 0 -279 -1 -274 -20z"/>
<path d="M3620 3141 c0 -15 10 -19 56 -23 43 -4 61 -11 82 -32 46 -46 37 -102
-57 -376 -50 -144 -81 -251 -81 -276 0 -30 -6 -46 -25 -64 -14 -13 -25 -29
-25 -37 0 -7 -4 -13 -10 -13 -5 0 -10 7 -10 15 0 13 -24 15 -154 15 l-155 0
60 -171 c32 -94 59 -172 59 -175 0 -2 33 -4 73 -4 l72 0 82 228 c183 508 266
729 291 775 29 53 72 94 114 109 17 6 28 17 28 29 0 18 -10 19 -200 19 -189 0
-200 -1 -200 -19z"/>
<path d="M1916 2563 c-10 -11 -7 -133 4 -133 6 0 10 9 10 20 0 14 7 20 23 20
27 0 67 26 67 44 0 25 -27 48 -62 51 -20 2 -39 1 -42 -2z m79 -43 c0 -21 -5
-26 -32 -28 -31 -3 -33 -1 -33 28 0 29 2 31 33 28 27 -2 32 -7 32 -28z"/>
<path d="M2215 2560 c-3 -6 5 -10 19 -10 24 0 25 -3 29 -62 l3 -63 2 63 c2 59
3 62 27 62 14 0 25 5 25 10 0 6 -22 10 -49 10 -28 0 -53 -4 -56 -10z"/>
<path d="M2419 2504 c-16 -37 -27 -69 -25 -71 2 -3 9 5 16 16 8 15 20 21 45
21 25 0 37 -6 45 -21 7 -11 14 -19 16 -16 5 5 -54 137 -62 137 -2 0 -18 -30
-35 -66z m56 -1 c6 -20 3 -23 -25 -23 l-31 0 17 31 c16 32 27 30 39 -8z"/>
<path d="M2612 2503 l-2 -73 48 2 47 1 -42 4 -42 4 -4 67 -3 67 -2 -72z"/>
<path d="M3280 2524 c0 -54 -14 -84 -39 -84 -27 0 -43 24 -43 63 0 19 -4 40
-9 48 -6 9 -9 -4 -9 -38 0 -58 17 -83 55 -83 39 0 55 25 55 86 0 30 -2 54 -5
54 -3 0 -5 -21 -5 -46z"/>
<path d="M3401 2495 c1 -38 4 -60 6 -47 3 16 11 22 29 22 42 0 64 18 64 51 0
32 -29 51 -75 47 -24 -2 -25 -5 -24 -73z m84 25 c0 -22 -5 -25 -37 -28 -36 -3
-38 -2 -38 28 0 30 2 31 38 28 32 -3 37 -6 37 -28z"/>
<path d="M1724 2503 c-14 -32 -28 -61 -31 -65 -2 -5 0 -8 6 -8 5 0 13 9 16 20
5 15 15 20 45 20 30 0 40 -5 45 -20 3 -11 10 -20 15 -20 12 0 -47 124 -60 128
-6 2 -22 -23 -36 -55z m55 7 c10 -29 9 -30 -20 -30 -33 0 -33 0 -17 35 15 33
24 32 37 -5z"/>
<path d="M2110 2495 c0 -37 4 -65 10 -65 6 0 10 28 10 65 0 37 -4 65 -10 65
-6 0 -10 -28 -10 -65z"/>
<path d="M2581 2343 c0 -5 26 -82 57 -173 l58 -165 71 -3 c60 -2 72 0 78 15
29 75 115 316 115 323 0 6 -11 10 -25 10 -17 0 -28 -7 -34 -22 l-8 -23 -7 23
c-7 21 -11 22 -157 22 -82 0 -149 -3 -148 -7z"/>
</g>
</svg>
